<svg width="200" height="113" viewBox="0 0 200 113" fill="none" xmlns="http://www.w3.org/2000/svg">
<rect width="200" height="112.5" fill="#FFBD00"/>
<path d="M35.6406 73L26.5234 58.6562H22.375V73H19.3516V39.3906H30.0156C31.1562 39.3906 32.2266 39.6094 33.2266 40.0469C34.2266 40.4688 35.1016 41.0547 35.8516 41.8047C36.6016 42.5547 37.1875 43.4375 37.6094 44.4531C38.0469 45.4531 38.2656 46.5234 38.2656 47.6641V50.3828C38.2656 51.5234 38.0469 52.6016 37.6094 53.6172C37.1875 54.6172 36.6016 55.4922 35.8516 56.2422C35.1016 56.9922 34.2266 57.5859 33.2266 58.0234C32.2266 58.4453 31.1562 58.6562 30.0156 58.6562L39.1328 73H35.6406ZM35.2422 47.6641C35.2422 46.9141 35.1016 46.2188 34.8203 45.5781C34.5391 44.9219 34.1562 44.3516 33.6719 43.8672C33.1875 43.3672 32.6172 42.9766 31.9609 42.6953C31.3203 42.4141 30.625 42.2734 29.875 42.2734H22.375V55.7734H29.875C30.625 55.7734 31.3203 55.6328 31.9609 55.3516C32.6172 55.0703 33.1875 54.6875 33.6719 54.2031C34.1562 53.7031 34.5391 53.1328 34.8203 52.4922C35.1016 51.8359 35.2422 51.1328 35.2422 50.3828V47.6641ZM44.9219 73V39.3906H63.8359V42.2734H47.9453V54.7656H60.8125V57.6484H47.9453V70.1172H63.8359V73H44.9219ZM88.0469 65.2188C88.0469 66.3594 87.8281 67.4297 87.3906 68.4297C86.9688 69.4297 86.3828 70.3047 85.6328 71.0547C84.8828 71.8047 84.0078 72.3984 83.0078 72.8359C82.0078 73.2578 80.9375 73.4688 79.7969 73.4688H77.4062C76.2656 73.4688 75.1875 73.2578 74.1719 72.8359C73.1719 72.3984 72.2969 71.8047 71.5469 71.0547C70.7969 70.3047 70.2031 69.4297 69.7656 68.4297C69.3438 67.4297 69.1328 66.3594 69.1328 65.2188V47.1719C69.1328 46.0312 69.3438 44.9609 69.7656 43.9609C70.2031 42.9609 70.7969 42.0859 71.5469 41.3359C72.2969 40.5859 73.1719 40 74.1719 39.5781C75.1875 39.1406 76.2656 38.9219 77.4062 38.9219H79.7969C80.9375 38.9219 82.0078 39.1406 83.0078 39.5781C84.0078 40 84.8828 40.5859 85.6328 41.3359C86.3828 42.0859 86.9688 42.9609 87.3906 43.9609C87.8281 44.9609 88.0469 46.0312 88.0469 47.1719V48.5312L85.0234 49V47.1719C85.0234 46.4219 84.8828 45.7266 84.6016 45.0859C84.3203 44.4297 83.9375 43.8594 83.4531 43.375C82.9688 42.8906 82.3984 42.5078 81.7422 42.2266C81.1016 41.9453 80.4062 41.8047 79.6562 41.8047H77.5469C76.7969 41.8047 76.0938 41.9453 75.4375 42.2266C74.7969 42.5078 74.2266 42.8906 73.7266 43.375C73.2422 43.8594 72.8594 44.4297 72.5781 45.0859C72.2969 45.7266 72.1562 46.4219 72.1562 47.1719V65.2188C72.1562 65.9688 72.2969 66.6719 72.5781 67.3281C72.8594 67.9688 73.2422 68.5391 73.7266 69.0391C74.2266 69.5234 74.7969 69.9062 75.4375 70.1875C76.0938 70.4688 76.7969 70.6094 77.5469 70.6094H79.6562C80.4062 70.6094 81.1016 70.4688 81.7422 70.1875C82.3984 69.9062 82.9688 69.5234 83.4531 69.0391C83.9375 68.5391 84.3203 67.9688 84.6016 67.3281C84.8828 66.6719 85.0234 65.9688 85.0234 65.2188V63.3906L88.0469 63.8828V65.2188ZM94.7969 73V39.3906H113.711V42.2734H97.8203V54.7656H110.688V57.6484H97.8203V70.1172H113.711V73H94.7969ZM127.656 42.2734V73H124.633V42.2734H116.617V39.3906H135.672V42.2734H127.656ZM148.656 42.2734V73H145.633V42.2734H137.617V39.3906H156.672V42.2734H148.656ZM161.5 73V39.3906H180.414V42.2734H164.523V54.7656H177.391V57.6484H164.523V70.1172H180.414V73H161.5Z" fill="black"/>
</svg>
 